<?xml version="1.0" encoding="UTF-8"?>
<svg width="24px" height="24px" viewBox="0 0 24 24" version="1.1" xmlns="http://www.w3.org/2000/svg" xmlns:xlink="http://www.w3.org/1999/xlink">
    <!-- Generator: Sketch 52.5 (67469) - http://www.bohemiancoding.com/sketch -->
    <title>中科金logo图形@2x</title>
    <desc>Created with Sketch.</desc>
    <g id="中科金logo图形" stroke="none" stroke-width="1" fill="none" fill-rule="evenodd">
        <g>
            <rect id="Rectangle-4-Copy" fill="#1B4764" opacity="0" x="0" y="0" width="24" height="24"></rect>
            <path d="M1.64916992,14.2425881 L1.64916992,6.8976261 C1.64916992,6.25640694 1.98713548,5.66361824 2.53585125,5.34268579 L11.2626958,0.240699336 C11.8110928,-0.0802331119 12.4870239,-0.0802331119 13.0357397,0.240699336 L14.583048,1.14505727 L10.3546525,3.60596986 L17.5348264,7.80392125 L11.2464352,11.4804381 L4.96218888,7.80101543 L4.96218888,16.1736716 L1.64916992,14.2425881 Z M19.3262671,7.80401811 L12.1613973,3.61510707 L13.0586002,3.09205821 L15.4897203,1.67530612 L21.7624886,5.34278265 C22.3112044,5.6637151 22.6491699,6.25618094 22.6491699,6.89772296 L22.6491699,17.1023416 C22.6491699,17.7438836 22.3112044,18.3363495 21.7624886,18.6572819 L20.2218758,19.5580883 L20.2218758,14.6249627 L13.0448902,18.8212997 L13.0448902,11.4763377 L19.3262671,7.80401811 Z M19.2084255,16.2703388 L19.2061936,17.3135307 L19.2061936,20.1518779 L13.0357715,23.7593007 C12.4870558,24.0802331 11.8111247,24.0802331 11.2627277,23.7593007 L2.5355643,18.6573142 C1.98716736,18.3363818 1.64920181,17.7435931 1.64920181,17.1023739 L1.64920181,15.3007612 L5.86771339,17.7671625 L5.86771339,9.37481132 L12.1462207,13.0490681 L12.1481337,20.3982274 L19.2084255,16.2703388 Z" id="形状" fill="#FFFFFF"></path>
        </g>
    </g>
</svg>