<?xml version="1.0" encoding="UTF-8"?>
<svg width="16px" height="16px" viewBox="0 0 16 16" version="1.1" xmlns="http://www.w3.org/2000/svg" xmlns:xlink="http://www.w3.org/1999/xlink">
    <!-- Generator: Sketch 52.5 (67469) - http://www.bohemiancoding.com/sketch -->
    <title>门禁业务@2x</title>
    <desc>Created with Sketch.</desc>
    <defs>
        <linearGradient x1="106.711238%" y1="142.918983%" x2="-20.8653846%" y2="-46.6618465%" id="linearGradient-1">
            <stop stop-color="#FFFFFF" stop-opacity="0" offset="0%"></stop>
            <stop stop-color="#FFFFFF" offset="100%"></stop>
        </linearGradient>
    </defs>
    <g id="门禁业务" stroke="none" stroke-width="1" fill="none" fill-rule="evenodd">
        <g>
            <rect id="Rectangle-path" fill="#000000" fill-rule="nonzero" opacity="0" x="0" y="0" width="16" height="16"></rect>
            <path d="M13.4,1.62268066 C13.9522847,1.62268066 14.4,2.07039591 14.4,2.62268066 L14.4,13.6226807 C14.4,14.1749654 13.9522847,14.6226807 13.4,14.6226807 L2.4,14.6226807 C1.84771525,14.6226807 1.4,14.1749654 1.4,13.6226807 L1.4,2.62268066 C1.4,2.07039591 1.84771525,1.62268066 2.4,1.62268066 L13.4,1.62268066 Z M4.4,12.6421875 C4.95228475,12.6421875 5.4,12.1944722 5.4,11.6421875 C5.4,11.0899028 4.95228475,10.6421875 4.4,10.6421875 C3.84771525,10.6421875 3.4,11.0899028 3.4,11.6421875 C3.4,12.1944722 3.84771525,12.6421875 4.4,12.6421875 Z M8.8921936,5.54206543 C8.8921936,5.26925367 8.6722428,5.04781418 8.4,5.04538574 C6.74314575,5.04538574 5.4,6.38853149 5.4,8.04538574 L5.4,8.26053467 C5.4,8.53667704 5.62385763,8.76053467 5.9,8.76053467 C6.17614237,8.76053467 6.4,8.53667704 6.4,8.26053467 L6.4,8.04538574 C6.4,6.94081624 7.2954305,6.04538574 8.4,6.0453659 C8.67224289,6.04295721 8.8921936,5.82151775 8.8921936,5.54206543 Z M4.4,8.04538574 C4.4,5.83624674 6.190861,4.04538574 8.4,4.04538483 C8.67386665,4.04486603 8.89571838,3.82269417 8.89571838,3.54206543 C8.89571838,3.26807732 8.67386665,3.04590545 8.4,3.04538574 C5.63857625,3.04538574 3.4,5.28396199 3.4,8.04538574 L3.4,8.26053467 C3.4,8.53667704 3.62385763,8.76053467 3.9,8.76053467 C4.17614237,8.76053467 4.4,8.53667704 4.4,8.26053467 L4.4,8.04538574 Z" id="合并形状" fill="url(#linearGradient-1)"></path>
        </g>
    </g>
</svg>