<?xml version="1.0" encoding="UTF-8"?>
<svg width="16px" height="16px" viewBox="0 0 16 16" version="1.1" xmlns="http://www.w3.org/2000/svg" xmlns:xlink="http://www.w3.org/1999/xlink">
    <!-- Generator: Sketch 52.5 (67469) - http://www.bohemiancoding.com/sketch -->
    <title>考勤icon@2x</title>
    <desc>Created with Sketch.</desc>
    <defs>
        <linearGradient x1="106.711238%" y1="142.918983%" x2="-20.8653846%" y2="-46.6618465%" id="linearGradient-1">
            <stop stop-color="#FFFFFF" stop-opacity="0" offset="0%"></stop>
            <stop stop-color="#FFFFFF" offset="100%"></stop>
        </linearGradient>
    </defs>
    <g id="考勤icon" stroke="none" stroke-width="1" fill="none" fill-rule="evenodd">
        <g>
            <rect id="Rectangle-path" fill-opacity="0" fill="#FFFFFF" fill-rule="nonzero" opacity="0.397670201" x="0" y="0" width="16" height="16"></rect>
            <path d="M12.8249638,10.1107728 L9.59620361,14.3875904 C8.9306755,15.2691493 7.67651367,15.4442769 6.79495476,14.7787488 C6.64707925,14.667111 6.5154342,14.5354659 6.40379639,14.3875904 L3.1750362,10.1107728 C2.98085951,9.85356629 2.81979986,9.5816813 2.69114331,9.30023077 C2.2498478,8.46474985 2,7.51251377 2,6.50192261 C2,3.18821411 4.6862915,0.501922607 8,0.501922607 C11.3137085,0.501922607 14,3.18821411 14,6.50192261 C14,7.51251377 13.7501522,8.46474985 13.3088567,9.30023077 C13.1802001,9.5816813 13.0191405,9.85356629 12.8249638,10.1107728 Z M8,10.0174866 C9.93299662,10.0174866 11.5,8.4504832 11.5,6.51748657 C11.5,4.58448995 9.93299662,3.01748657 8,3.01748657 C6.06700338,3.01748657 4.5,4.58448995 4.5,6.51748657 C4.5,8.4504832 6.06700338,10.0174866 8,10.0174866 Z M8.31982422,6.39041138 L9.39978027,6.39041138 C9.705283,6.39041138 9.95294189,6.63807027 9.95294189,6.943573 L9.95294189,6.943573 C9.95294189,7.24907573 9.705283,7.49673462 9.39978027,7.49673462 L7.68908691,7.49673462 C7.41294454,7.49673462 7.18908691,7.27287699 7.18908691,6.99673462 L7.18908691,5.07632446 C7.18908691,4.76407998 7.44221108,4.51095581 7.75445557,4.51095581 L7.75445557,4.51095581 C8.06670005,4.51095581 8.31982422,4.76407998 8.31982422,5.07632446 L8.31982422,6.39041138 Z" id="形状" fill="url(#linearGradient-1)"></path>
        </g>
    </g>
</svg>