<?xml version="1.0" encoding="UTF-8"?>
<svg width="16px" height="16px" viewBox="0 0 16 16" version="1.1" xmlns="http://www.w3.org/2000/svg" xmlns:xlink="http://www.w3.org/1999/xlink">
    <!-- Generator: Sketch 52.5 (67469) - http://www.bohemiancoding.com/sketch -->
    <title>迎宾业务@2x</title>
    <desc>Created with Sketch.</desc>
    <defs>
        <linearGradient x1="104.014079%" y1="111.215655%" x2="35.6608073%" y2="-15.4638986%" id="linearGradient-1">
            <stop stop-color="#FFFFFF" stop-opacity="0" offset="0%"></stop>
            <stop stop-color="#FFFFFF" offset="100%"></stop>
        </linearGradient>
    </defs>
    <g id="迎宾业务" stroke="none" stroke-width="1" fill="none" fill-rule="evenodd">
        <g>
            <rect id="Rectangle-path" fill="#000000" fill-rule="nonzero" opacity="0" x="0" y="0" width="16" height="16"></rect>
            <path d="M0.224772975,8.0398099 C-0.0577876338,7.77887695 -0.0753203227,7.33828838 0.185612618,7.05572777 C0.188357628,7.05275524 0.191128492,7.04980669 0.193924893,7.04688245 L3.85497107,3.21847272 C4.12551583,2.9355601 4.57409399,2.92527083 4.85732601,3.19548119 L4.95529966,3.28895048 C5.18405403,3.5071878 5.19257978,3.86954617 4.97434245,4.09830054 C4.97418685,4.09846364 4.97403116,4.09862665 4.97387536,4.09878956 L5.25551906,4.38649383 C4.28171341,4.63873649 3.66074309,5.60156537 3.84952159,6.59576655 C4.04686953,7.63509858 5.0554652,8.32130106 6.10427886,8.12262321 L8.74701435,7.62200712 L11.4934261,10.365173 C11.745667,10.6171157 12.0720047,10.7529434 12.4041295,10.7720181 C12.6676486,11.050999 12.6569142,11.4883961 12.377948,11.7543584 C12.3657088,11.7660271 12.3530487,11.7772567 12.3399924,11.7880255 C11.5389171,12.4487496 10.9923048,12.8928012 10.7001556,13.1201804 C9.9451565,13.7077946 9.12781643,13.9338319 8.44777145,13.9900003 C7.65619464,14.0553806 6.96268514,13.8005675 6.37495231,13.2135 L1.28317209,7.95821214 L1.23515972,8.00841939 C0.963297647,8.29270955 0.513758253,8.30667575 0.224772975,8.0398099 Z M14.9368328,7.80179589 L14.920844,7.78582594 L12.8563006,9.77144945 C12.6470932,9.97265965 12.3128917,9.96953874 12.1075678,9.76445749 L9.03699602,6.69751472 L5.94164951,7.28386939 C5.36463044,7.3931747 4.80814975,7.01457063 4.6987151,6.43823352 C4.58928045,5.86189641 4.96833251,5.3060734 5.54535158,5.19676809 L11.2473156,4.11663919 L11.1887706,4.05816341 C10.9629717,3.83263137 10.9627554,3.46675535 11.1882874,3.24095644 C11.1982151,3.23101699 11.208502,3.22144288 11.2191275,3.21225318 C11.4841538,2.98303963 11.8811754,2.9972874 12.1290896,3.24490866 L15.8186893,6.93014768 C16.0593964,7.1705703 16.059627,7.560603 15.8192044,7.8013101 C15.8182738,7.80224176 15.8173403,7.80317043 15.8164038,7.80409609 C15.5724298,8.04524588 15.1795422,8.04421842 14.9368328,7.80179589 Z" id="合并形状" fill="url(#linearGradient-1)"></path>
        </g>
    </g>
</svg>