<?xml version="1.0" encoding="UTF-8"?>
<svg width="16px" height="16px" viewBox="0 0 16 16" version="1.1" xmlns="http://www.w3.org/2000/svg" xmlns:xlink="http://www.w3.org/1999/xlink">
    <!-- Generator: Sketch 58 (84663) - https://sketch.com -->
    <title>升级管理</title>
    <desc>Created with Sketch.</desc>
    <defs>
        <linearGradient x1="104.014079%" y1="111.215655%" x2="35.6608073%" y2="-15.4638986%" id="linearGradient-1">
            <stop stop-color="#FFFFFF" stop-opacity="0" offset="0%"></stop>
            <stop stop-color="#FFFFFF" offset="100%"></stop>
        </linearGradient>
    </defs>
    <g id="升级管理" stroke="none" stroke-width="1" fill="none" fill-rule="evenodd">
        <g>
            <rect id="矩形" fill="#FFFFFF" opacity="0" x="0" y="0" width="16" height="16"></rect>
            <path d="M7.95916674,1.01353958 C11.8026022,1.01353958 14.9183171,4.12925448 14.9183171,7.97268994 C14.9183171,11.8161254 11.8026022,14.9318403 7.95916674,14.9318403 C4.1157313,14.9318403 1.00001639,11.8161254 1.00001639,7.97268994 C1.00001639,4.12925449 4.1157313,1.01353958 7.95916674,1.01353958 Z M7.22354922,11.1809534 C7.16587397,11.1809265 7.11238105,11.211052 7.08250408,11.2603856 C7.05205823,11.3077378 7.04922827,11.3677475 7.0750828,11.4177548 L7.0750828,11.4177548 L7.83668842,12.7398031 C7.85059447,12.7614211 7.86571029,12.7822366 7.88196367,12.80215 C7.93319226,12.8607863 7.97104623,12.8578232 8.03043007,12.7976918 L8.03043007,12.7976918 L8.04601639,12.7805396 L8.05401639,12.7715396 L8.0632389,12.761651 L8.0632389,12.761651 L8.09352457,12.7234654 L8.9056112,11.423681 C8.93700954,11.376877 8.94097582,11.3168539 8.91600915,11.2663253 C8.88980143,11.2170694 8.8381847,11.1866717 8.78239889,11.1876407 L8.78239889,11.1876407 Z M8.17367712,3.20629719 C7.98648684,3.0488464 7.70821597,3.06787533 7.54420021,3.24935692 C6.52929683,4.27183757 5.9701523,5.66073736 5.99351939,7.10120588 C5.99654211,7.25637303 6.00050201,7.41152051 6.00539887,7.56663983 L6.00539887,7.56663983 L5.12575955,8.64075479 C5.05432671,8.72840459 5.01666586,8.83874943 5.01960532,8.9517826 L5.01960532,8.9517826 L5.04855648,10.388154 C5.05203192,10.5443219 5.13981257,10.6863594 5.2779366,10.7593132 C5.42085177,10.8316789 5.59103717,10.8249375 5.72778042,10.7414939 L5.72778042,10.7414939 L6.61855166,10.2062918 C7.03646767,10.7734218 7.59913944,10.866215 8.01186328,10.8387453 L8.01186328,10.8387453 L8.11801751,10.8283474 C8.63252324,10.7727104 9.09236598,10.4822259 9.36361028,10.0415013 L9.36361028,10.0415013 L10.2373099,10.437901 C10.3847245,10.5016131 10.5545024,10.4853617 10.6871537,10.3948413 C10.7056528,10.382207 10.7232641,10.3683196 10.7398638,10.3532766 C10.8419804,10.2627011 10.9003529,10.1326833 10.9001829,9.99618524 L10.9001829,9.99618524 L10.8712314,8.55981388 C10.8708314,8.44905806 10.8277642,8.34271656 10.7509821,8.26289467 L10.7509821,8.26289467 L9.88247475,7.36322061 C9.88172717,7.19100881 9.87430589,7.01953101 9.87430589,6.84360857 C9.85936819,5.44245433 9.23926983,4.11621969 8.17367712,3.20629719 Z M7.54496138,6.02412784 C7.80364605,5.78875361 8.20400107,5.80700779 8.44019084,6.06495848 C8.65706623,6.31426461 8.6399266,6.68993641 8.40126308,6.91846022 C8.15429479,7.15492182 7.76240764,7.14639958 7.52594604,6.89944488 C7.28948445,6.65247659 7.29800668,6.26058944 7.54496138,6.02412784 Z" id="形状结合" fill="url(#linearGradient-1)"></path>
        </g>
    </g>
</svg>