<?xml version="1.0" encoding="UTF-8"?>
<svg width="16px" height="16px" viewBox="0 0 16 16" version="1.1" xmlns="http://www.w3.org/2000/svg" xmlns:xlink="http://www.w3.org/1999/xlink">
    <!-- Generator: Sketch 52.5 (67469) - http://www.bohemiancoding.com/sketch -->
    <title>设备管理@2x</title>
    <desc>Created with Sketch.</desc>
    <defs>
        <linearGradient x1="35.6608073%" y1="122.906015%" x2="35.6608073%" y2="-15.4638986%" id="linearGradient-1">
            <stop stop-color="#FFFFFF" stop-opacity="0" offset="0%"></stop>
            <stop stop-color="#FFFFFF" offset="100%"></stop>
        </linearGradient>
    </defs>
    <g id="设备管理" stroke="none" stroke-width="1" fill="none" fill-rule="evenodd">
        <g>
            <rect id="Rectangle-path" fill-opacity="0" fill="#FFFFFF" fill-rule="nonzero" opacity="0.397670201" x="0" y="0" width="16" height="16"></rect>
            <path d="M7.13485107,7.57729492 L7.13485107,5.46241455 C7.13485107,5.07581523 7.44825175,4.76241455 7.83485107,4.76241455 C8.2214504,4.76241455 8.53485107,5.07581523 8.53485107,5.46241455 L8.53485107,7.57729492 L14.4796713,7.57729492 C14.7558137,7.57729492 14.9796713,7.80115255 14.9796713,8.07729492 L14.9796713,14.0772949 C14.9796713,14.3534373 14.7558137,14.5772949 14.4796713,14.5772949 L1.5,14.5772949 C1.22385763,14.5772949 1,14.3534373 1,14.0772949 L1,8.07729492 C1,7.80115255 1.22385763,7.57729492 1.5,7.57729492 L7.13485107,7.57729492 Z M10,6.51514893 L10,6 C10,4.8954305 9.1045695,4 8,4 C6.8954305,4 6,4.8954305 6,6 L6,6.51514893 C6,6.62560588 5.91045695,6.71514893 5.8,6.71514893 L5.2,6.71514893 C5.08954305,6.71514893 5,6.62560588 5,6.51514893 L5,6 C5,4.34314575 6.34314575,3 8,3 C9.65685425,3 11,4.34314575 11,6 L11,6.51514893 C11,6.62560588 10.9104569,6.71514893 10.8,6.71514893 L10.2,6.71514893 C10.0895431,6.71514893 10,6.62560588 10,6.51514893 Z M12,6 C12,3.790861 10.209139,2 8,2 C5.790861,2 4,3.790861 4,6 L4,6.51514893 C4,6.62560588 3.91045695,6.71514893 3.8,6.71514893 L3.2,6.71514893 C3.08954305,6.71514893 3,6.62560588 3,6.51514893 L3,6 C3,3.23857625 5.23857625,1 8,1 C10.7614237,1 13,3.23857625 13,6 L13,6.51514893 C13,6.62560588 12.9104569,6.71514893 12.8,6.71514893 L12.2,6.71514893 C12.0895431,6.71514893 12,6.62560588 12,6.51514893 L12,6 Z M3.9956543,11.6385254 C4.38225362,11.6385254 4.6956543,11.3251247 4.6956543,10.9385254 C4.6956543,10.5519261 4.38225362,10.2385254 3.9956543,10.2385254 C3.60905497,10.2385254 3.2956543,10.5519261 3.2956543,10.9385254 C3.2956543,11.3251247 3.60905497,11.6385254 3.9956543,11.6385254 Z M6.58826904,11.6385254 C6.97486837,11.6385254 7.28826904,11.3251247 7.28826904,10.9385254 C7.28826904,10.5519261 6.97486837,10.2385254 6.58826904,10.2385254 C6.20166972,10.2385254 5.88826904,10.5519261 5.88826904,10.9385254 C5.88826904,11.3251247 6.20166972,11.6385254 6.58826904,11.6385254 Z" id="合并形状" fill="url(#linearGradient-1)"></path>
        </g>
    </g>
</svg>