<?xml version="1.0" encoding="UTF-8"?>
<svg width="16px" height="16px" viewBox="0 0 16 16" version="1.1" xmlns="http://www.w3.org/2000/svg" xmlns:xlink="http://www.w3.org/1999/xlink">
    <!-- Generator: Sketch 52.5 (67469) - http://www.bohemiancoding.com/sketch -->
    <title>人员管理@2x</title>
    <desc>Created with Sketch.</desc>
    <defs>
        <linearGradient x1="50%" y1="127.215539%" x2="50%" y2="-15.9080676%" id="linearGradient-1">
            <stop stop-color="#FFFFFF" stop-opacity="0" offset="0%"></stop>
            <stop stop-color="#FFFFFF" offset="100%"></stop>
        </linearGradient>
    </defs>
    <g id="人员管理" stroke="none" stroke-width="1" fill="none" fill-rule="evenodd">
        <g>
            <rect id="Rectangle-path" fill="#000000" fill-rule="nonzero" opacity="0" x="0" y="0" width="16" height="16"></rect>
            <path d="M9.58693696,9.26907328 C9.84340248,8.98865841 10.4321794,8.26614224 10.6646767,7.28220097 C10.9021902,7.1724111 11.1017619,6.93593481 11.2265248,6.60558459 C11.4011665,6.14057112 11.4141406,5.49889817 11.0738524,5.08278287 C11.0756595,5.07589278 11.076989,5.06888619 11.0778314,5.06181304 C11.1417214,4.47901401 11.3113658,2.93026401 10.3783028,1.91539601 C9.84042295,1.33061692 9.03508351,0.869563578 7.98629041,0.841635237 C6.93745959,0.869563578 6.13213901,1.33059806 5.59427802,1.91539601 C4.66119612,2.93026401 4.83085937,4.47901401 4.89371228,5.06181304 C4.8947306,5.06980873 4.89571121,5.07478718 4.89672953,5.08278287 C4.55642241,5.49889817 4.56939655,6.14057112 4.74403825,6.60560345 C4.86976293,6.93591595 5.06635506,7.17242996 5.30384968,7.28220097 C5.53636584,8.2671417 6.12114494,8.98863955 6.37761045,9.26905442 C6.38058998,9.5175431 6.37361261,9.72610991 6.37361261,9.93869343 C6.37361261,12.2757732 1.00880657,11.7618615 1.00880657,14.1628502 L1.00880657,14.8125 L14.9796713,14.8125 L14.9796713,14.1628502 C14.9796713,11.7428906 9.58092134,12.2568211 9.58095905,9.96360453 C9.58095905,9.75107759 9.58393858,9.5165625 9.58693696,9.26907328 Z" id="路径" fill="url(#linearGradient-1)"></path>
        </g>
    </g>
</svg>