<?xml version="1.0" encoding="UTF-8"?>
<svg width="16px" height="16px" viewBox="0 0 16 16" version="1.1" xmlns="http://www.w3.org/2000/svg" xmlns:xlink="http://www.w3.org/1999/xlink">
    <!-- Generator: Sketch 52.5 (67469) - http://www.bohemiancoding.com/sketch -->
    <title>底库管理@2x</title>
    <desc>Created with Sketch.</desc>
    <defs>
        <linearGradient x1="104.014079%" y1="111.215655%" x2="35.6608073%" y2="-15.4638986%" id="linearGradient-1">
            <stop stop-color="#FFFFFF" stop-opacity="0" offset="0%"></stop>
            <stop stop-color="#FFFFFF" offset="100%"></stop>
        </linearGradient>
    </defs>
    <g id="底库管理" stroke="none" stroke-width="1" fill="none" fill-rule="evenodd">
        <g>
            <rect id="Rectangle-path" fill="#000000" fill-rule="nonzero" opacity="0" x="0" y="0" width="16" height="16"></rect>
            <path d="M8.34244662,8.59761225 L13.6457669,5.46601873 C13.8835482,5.32560969 14.1901319,5.40454543 14.330541,5.64232666 C14.3760137,5.71933421 14.4,5.80712858 14.4,5.89655973 L14.4,11.5927293 C14.4,11.775043 14.3007679,11.9429055 14.1410373,12.0307944 L8.83771702,14.9488498 C8.59578036,15.0819711 8.29173586,14.9937587 8.15861462,14.7518221 C8.11798459,14.6779804 8.09667969,14.5950664 8.09667969,14.5107847 L8.09667969,9.02815324 C8.09667969,8.85127057 8.19013614,8.6875511 8.34244662,8.59761225 Z M1,11.5927293 L1,5.88364261 C1,5.60750023 1.22385763,5.38364261 1.5,5.38364261 C1.58943115,5.38364261 1.67722551,5.4076289 1.75423307,5.45310162 L7.05423307,8.5827345 C7.20654355,8.67267335 7.3,8.83639282 7.3,9.01327549 L7.3,14.5089578 C7.3,14.7851002 7.07614237,15.0089578 6.8,15.0089578 C6.71571838,15.0089578 6.63280433,14.9876529 6.55896267,14.9470229 L1.25896267,12.0307944 C1.09923211,11.9429055 1,11.775043 1,11.5927293 Z M7.95193551,0.751144698 L13.3306376,3.88872093 C13.5691636,4.02786107 13.6497317,4.33401994 13.5105916,4.5725459 C13.467587,4.64626796 13.4064271,4.70775465 13.3329352,4.75115138 L7.96517057,7.92079905 C7.80833312,8.01341105 7.61354188,8.01341105 7.45670443,7.92079905 L2.07806907,4.74473223 C1.84028784,4.60432319 1.76135209,4.2977394 1.90176114,4.05995817 C1.94515786,3.98646628 2.00664455,3.92530633 2.08036662,3.88230179 L7.44806449,0.751144698 C7.60374574,0.660330632 7.79625426,0.660330632 7.95193551,0.751144698 Z" id="形状" fill="url(#linearGradient-1)"></path>
        </g>
    </g>
</svg>