<?xml version="1.0" encoding="UTF-8"?>
<svg width="16px" height="16px" viewBox="0 0 16 16" version="1.1" xmlns="http://www.w3.org/2000/svg" xmlns:xlink="http://www.w3.org/1999/xlink">
    <!-- Generator: Sketch 52.5 (67469) - http://www.bohemiancoding.com/sketch -->
    <title>组织架构@2x</title>
    <desc>Created with Sketch.</desc>
    <defs>
        <linearGradient x1="50%" y1="161.645508%" x2="50%" y2="-41.6503906%" id="linearGradient-1">
            <stop stop-color="#FFFFFF" stop-opacity="0" offset="0%"></stop>
            <stop stop-color="#FFFFFF" offset="100%"></stop>
        </linearGradient>
    </defs>
    <g id="组织架构" stroke="none" stroke-width="1" fill="none" fill-rule="evenodd">
        <g>
            <rect id="Rectangle-path" fill="#000000" fill-rule="nonzero" opacity="0" x="0" y="0" width="16" height="16"></rect>
            <path d="M11.8125,10 L11.8125,8.875 L4.1875,8.875 L4.1875,10 L5.5,10 C5.77614237,10 6,10.2238576 6,10.5 L6,14.5 C6,14.7761424 5.77614237,15 5.5,15 L1.5,15 C1.22385763,15 1,14.7761424 1,14.5 L1,10.5 C1,10.2238576 1.22385763,10 1.5,10 L2.8125,10 L2.8125,8 C2.8125,7.72385763 3.03635763,7.5 3.3125,7.5 L7.3125,7.5 L7.3125,6 L6,6 C5.72385763,6 5.5,5.77614237 5.5,5.5 L5.5,1.5 C5.5,1.22385763 5.72385763,1 6,1 L10,1 C10.2761424,1 10.5,1.22385763 10.5,1.5 L10.5,5.5 C10.5,5.77614237 10.2761424,6 10,6 L8.6875,6 L8.6875,7.5 L12.6875,7.5 C12.9636424,7.5 13.1875,7.72385763 13.1875,8 L13.1875,10 L14.5,10 C14.7761424,10 15,10.2238576 15,10.5 L15,14.5 C15,14.7761424 14.7761424,15 14.5,15 L10.5,15 C10.2238576,15 10,14.7761424 10,14.5 L10,10.5 C10,10.2238576 10.2238576,10 10.5,10 L11.8125,10 Z" id="形状" fill="url(#linearGradient-1)"></path>
        </g>
    </g>
</svg>