<?xml version="1.0" encoding="UTF-8"?>
<svg width="16px" height="16px" viewBox="0 0 16 16" version="1.1" xmlns="http://www.w3.org/2000/svg" xmlns:xlink="http://www.w3.org/1999/xlink">
    <!-- Generator: Sketch 52.5 (67469) - http://www.bohemiancoding.com/sketch -->
    <title>系统管理@2x</title>
    <desc>Created with Sketch.</desc>
    <defs>
        <linearGradient x1="104.014079%" y1="111.215655%" x2="35.6608073%" y2="-15.4638986%" id="linearGradient-1">
            <stop stop-color="#FFFFFF" stop-opacity="0" offset="0%"></stop>
            <stop stop-color="#FFFFFF" offset="100%"></stop>
        </linearGradient>
    </defs>
    <g id="系统管理" stroke="none" stroke-width="1" fill="none" fill-rule="evenodd">
        <g>
            <rect id="Rectangle-path" fill="#000000" fill-rule="nonzero" opacity="0" x="0" y="0" width="16" height="16"></rect>
            <g id="分组" fill="url(#linearGradient-1)">
                <path d="M5.54425446,13.4760513 C5.11905315,13.2850749 4.72012315,13.0460299 4.35438262,12.7658345 L2.84537293,13.4479434 C1.77865801,12.438313 1.00829056,11.118766 0.678381278,9.63341301 L2.03576568,8.65889957 C2.01213014,8.44251602 2,8.22267458 2,8 C2,7.77732542 2.01213014,7.55748398 2.03576568,7.34110043 L0.678381278,6.36658699 C1.00829056,4.88123402 1.77865801,3.56168699 2.84537293,2.55205657 L4.35438262,3.23416547 C4.72012315,2.95397006 5.11905315,2.71492507 5.54425446,2.52394868 L5.71002569,0.856030796 C6.4318986,0.624825575 7.20137201,0.5 8,0.5 C8.72120231,0.5 9.418629,0.601795538 10.0786957,0.791802284 L10.2417937,2.43282306 C10.7173691,2.62450961 11.1627412,2.87536699 11.5687904,3.1762756 L13.0878561,2.48962116 C14.1585442,3.47869951 14.9403494,4.7759111 15.2924457,6.24043004 L13.9478923,7.20573166 C13.9822625,7.46560851 14,7.73073285 14,8 C14,8.26926715 13.9822625,8.53439149 13.9478923,8.79426834 L15.2924457,9.75956996 C14.9403494,11.2240889 14.1585442,12.5213005 13.0878561,13.5103788 L11.5687904,12.8237244 C11.1627412,13.124633 10.7173691,13.3754904 10.2417937,13.5671769 L10.0786957,15.2081977 C9.418629,15.3982045 8.72120231,15.5 8,15.5 C7.20137201,15.5 6.4318986,15.3751744 5.71002569,15.1439692 L5.54425446,13.4760513 Z M8,11.8 C10.098682,11.8 11.8,10.098682 11.8,8 C11.8,5.90131795 10.098682,4.2 8,4.2 C5.90131795,4.2 4.2,5.90131795 4.2,8 C4.2,10.098682 5.90131795,11.8 8,11.8 Z M8,10.2 C6.78497355,10.2 5.8,9.21502645 5.8,8 C5.8,6.78497355 6.78497355,5.8 8,5.8 C9.21502645,5.8 10.2,6.78497355 10.2,8 C10.2,9.21502645 9.21502645,10.2 8,10.2 Z" id="形状"></path>
            </g>
        </g>
    </g>
</svg>