<?xml version="1.0" encoding="UTF-8"?>
<svg width="16px" height="16px" viewBox="0 0 16 16" version="1.1" xmlns="http://www.w3.org/2000/svg" xmlns:xlink="http://www.w3.org/1999/xlink">
    <!-- Generator: Sketch 53.2 (72643) - https://sketchapp.com -->
    <title>icon_hyqd</title>
    <desc>Created with Sketch.</desc>
    <defs>
        <linearGradient x1="106.711238%" y1="130.118919%" x2="-20.8653846%" y2="-33.3461839%" id="linearGradient-1">
            <stop stop-color="#FFFFFF" stop-opacity="0" offset="0%"></stop>
            <stop stop-color="#FFFFFF" offset="100%"></stop>
        </linearGradient>
    </defs>
    <g id="web" stroke="none" stroke-width="1" fill="none" fill-rule="evenodd">
        <g id="查看详情" transform="translate(-16.000000, -404.000000)">
            <g id="会议签到" transform="translate(0.000000, 392.000000)">
                <g id="icon_hyqd" transform="translate(16.000000, 12.000000)">
                    <rect id="Rectangle-path" fill="#000000" fill-rule="nonzero" opacity="0" x="0" y="0" width="16" height="16"></rect>
                    <path d="M7,12 L1.5,12 C1.22385763,12 1,11.7761424 1,11.5 C1,11.2238576 1.22385763,11 1.5,11 L2,11 L2,2 L1.5,2 C1.22385763,2 1,1.77614237 1,1.5 C1,1.22385763 1.22385763,1 1.5,1 L14.5,1 C14.7761424,1 15,1.22385763 15,1.5 C15,1.77614237 14.7761424,2 14.5,2 L14,2 L14,11 L14.5,11 C14.7761424,11 15,11.2238576 15,11.5 C15,11.7761424 14.7761424,12 14.5,12 L9,12 L9,13.5 C9,13.7761424 8.77614237,14 8.5,14 L7.5,14 C7.22385763,14 7,13.7761424 7,13.5 L7,12 Z M6,4 L6,5 L12,5 L12,4 L6,4 Z M6,6 L6,7 L12,7 L12,6 L6,6 Z M6,8 L6,9 L10,9 L10,8 L6,8 Z M4,4 L4,5 L5,5 L5,4 L4,4 Z M4,6 L4,7 L5,7 L5,6 L4,6 Z M4,8 L4,9 L5,9 L5,8 L4,8 Z" id="Combined-Shape" fill="url(#linearGradient-1)"></path>
                </g>
            </g>
        </g>
    </g>
</svg>