<?xml version="1.0" encoding="UTF-8"?>
<svg width="56px" height="56px" viewBox="0 0 56 56" version="1.1" xmlns="http://www.w3.org/2000/svg" xmlns:xlink="http://www.w3.org/1999/xlink">
    <!-- Generator: Sketch 52.5 (67469) - http://www.bohemiancoding.com/sketch -->
    <title>员工图标@2x</title>
    <desc>Created with Sketch.</desc>
    <defs>
        <linearGradient x1="100%" y1="4.42914595%" x2="27.2971067%" y2="91.7591008%" id="linearGradient-1">
            <stop stop-color="#DDE8FF" stop-opacity="0" offset="0%"></stop>
            <stop stop-color="#8EB3FF" offset="100%"></stop>
        </linearGradient>
        <linearGradient x1="18.4070161%" y1="12.5297153%" x2="83.4193645%" y2="102.254895%" id="linearGradient-2">
            <stop stop-color="#DDE8FF" offset="0%"></stop>
            <stop stop-color="#8EB3FF" offset="100%"></stop>
        </linearGradient>
        <linearGradient x1="23.9995563%" y1="0%" x2="87.0775895%" y2="92.5181497%" id="linearGradient-3">
            <stop stop-color="#9BBBFF" offset="0%"></stop>
            <stop stop-color="#4F81E9" offset="100%"></stop>
        </linearGradient>
        <path d="M26.0652687,51.3320087 C18.1097497,52.8702493 10.6372608,51.4537683 3.64780215,47.0825655 C0.971106142,44.722122 -0.232503905,41.9392903 0.0369720124,38.7340706 C1.43916981,26.761562 7.74905992,21.4900843 18.9666423,22.9196376 C33.2754921,24.7431377 35.9867244,36.4521729 35.9926745,43.2117719 C35.9926745,44.9291737 31.7746936,50.228062 26.0652687,51.3320087 Z" id="path-4"></path>
        <linearGradient x1="22.6084797%" y1="100%" x2="45.0806996%" y2="-7.64745169%" id="linearGradient-6">
            <stop stop-color="#FFFFFF" stop-opacity="0.893993433" offset="0%"></stop>
            <stop stop-color="#8EB3FF" offset="100%"></stop>
        </linearGradient>
        <linearGradient x1="4.9751655%" y1="100%" x2="2.45536264%" y2="-52.3462782%" id="linearGradient-7">
            <stop stop-color="#FFFFFF" offset="0%"></stop>
            <stop stop-color="#8EB3FF" offset="100%"></stop>
        </linearGradient>
        <linearGradient x1="-9.64905142%" y1="-58.4170342%" x2="100%" y2="100%" id="linearGradient-8">
            <stop stop-color="#D5E3FF" offset="0%"></stop>
            <stop stop-color="#95B8FF" offset="100%"></stop>
        </linearGradient>
        <linearGradient x1="50%" y1="0%" x2="87.0775895%" y2="92.5181497%" id="linearGradient-9">
            <stop stop-color="#4C7EE9" offset="0%"></stop>
            <stop stop-color="#6C9EF0" offset="100%"></stop>
        </linearGradient>
    </defs>
    <g id="员工图标" stroke="none" stroke-width="1" fill="none" fill-rule="evenodd">
        <g id="分组-2">
            <rect id="矩形" fill="#FFFFFF" x="0" y="0" width="56" height="56"></rect>
            <path d="M50.323798,43.8148398 C63.7699672,31.5910496 44.4188864,27.5197745 28.323798,31.4398398 C19.4022073,33.6127523 21.0175599,37.9408922 15.7965075,43.0252505 C10.9881448,47.7077238 11.0724429,50.2298773 14.230048,52.0648398 C16.9139283,53.624509 21.4049901,54.5324312 27.292548,53.7835898 C35.5683066,52.7309919 42.761298,50.6898398 50.323798,43.8148398 Z" id="路径-3" fill="url(#linearGradient-1)"></path>
            <g id="分组" transform="translate(2.000000, 4.000000)">
                <path d="M26.0652687,51.3320087 C18.1097497,52.8702493 10.6372608,51.4537683 3.64780215,47.0825655 C0.971106142,44.722122 -0.232503905,41.9392903 0.0369720124,38.7340706 C1.43916981,26.761562 7.74905992,21.4900843 18.9666423,22.9196376 C33.2754921,24.7431377 35.9867244,36.4521729 35.9926745,43.2117719 C35.9926745,44.9291737 31.7746936,50.228062 26.0652687,51.3320087 Z" id="路径" fill="url(#linearGradient-2)"></path>
                <mask id="mask-5" fill="white">
                    <use xlink:href="#path-4"></use>
                </mask>
                <use id="Mask" fill="url(#linearGradient-3)" xlink:href="#path-4"></use>
                <path d="M12.8055762,19.8545455 C9.09623596,26.1776727 9.27846973,29.5850545 13.3522775,30.0766908 C17.4260854,30.5683272 20.9361593,28.2868727 23.8824993,23.2323272 L12.8055762,19.8545455 Z" id="路径-9" fill="url(#linearGradient-6)" opacity="0.844029018"></path>
                <path d="M15.3202856,29.3690172 C20.7755066,29.4984826 26.5644988,23.3034042 27.1299255,15.4529389 C27.6953521,7.60247354 22.8188238,2.91878928 16.5428381,2.76099676 C10.2668525,2.60320423 5.43875263,9.45516052 6.88892934,19.17068 C7.28730015,21.839582 8.25075952,24.6485404 9.46881222,26.3933727 C10.9556322,28.5232079 12.8781675,29.3110599 15.3202856,29.3690172 Z" id="椭圆形" fill="url(#linearGradient-7)" transform="translate(16.902145, 16.064668) rotate(5.000000) translate(-16.902145, -16.064668) "></path>
                <path d="M24.5106702,8.82348127 C26.0254677,15.7749105 26.3645875,21.0499537 25.3846154,22.2181818 C24.8426086,22.8643099 24.5450134,22.3467572 24.4615385,22.0279734 C24.3186238,21.4821943 24.6036828,19.2939336 24.5106702,18.4363636 C24.3633301,17.077896 21.8168773,18.0570817 20.7692308,17.9636364 C19.7215843,17.870191 20.4543644,14.3796607 20.4543644,13.035784 C20.4543644,11.3454545 16.933854,10.906938 14.0211452,11.1166444 C10.1263079,11.3970611 7.29874672,10.5170368 5.53846154,8.47657158 L16.3357268,5.67272727 L22.1992942,8.07918675 L21.9320159,9.05385453 L24.5106702,8.82348127 Z" id="路径" fill="url(#linearGradient-8)"></path>
                <path d="M4.62323164,5.25237674 C5.43321741,5.3964386 6.07151748,5.32254043 6.53813184,5.03068223 C11.9993519,1.61479542 16.3520841,-0.463284115 19.4198739,0.0883337607 C23.5099811,0.823774069 25.6872852,2.81196913 25.951786,6.05291895 C27.2297375,5.88932217 28.2578692,6.53543943 29.0361811,7.99127075 C29.8253917,9.46748818 29.3141622,14.5712867 28.0115785,18.3287461 C27.3872691,20.1296417 26.581174,21.6212637 25.6493432,22.2559891 C22.7733038,24.2150306 27.3124114,15.4784882 22.8608113,16.8584326 C18.4092111,18.2383771 22.5819071,13.7858858 20.8884993,11.4179108 C19.1950916,9.04993592 16.8566342,11.0570873 10.6274087,11.0537221 C6.47459166,11.0514787 4.47319932,9.11769686 4.62323164,5.25237674 Z" id="路径-5" fill="url(#linearGradient-9)"></path>
            </g>
        </g>
    </g>
</svg>