<?xml version="1.0" encoding="UTF-8"?>
<svg width="56px" height="56px" viewBox="0 0 56 56" version="1.1" xmlns="http://www.w3.org/2000/svg" xmlns:xlink="http://www.w3.org/1999/xlink">
    <!-- Generator: Sketch 52.5 (67469) - http://www.bohemiancoding.com/sketch -->
    <title>陌生人记录图标@2x</title>
    <desc>Created with Sketch.</desc>
    <defs>
        <linearGradient x1="100%" y1="4.42914595%" x2="27.2971067%" y2="91.7591008%" id="linearGradient-1">
            <stop stop-color="#DDE8FF" stop-opacity="0" offset="0%"></stop>
            <stop stop-color="#8EB3FF" offset="100%"></stop>
        </linearGradient>
        <linearGradient x1="18.4070161%" y1="12.5297153%" x2="83.4193645%" y2="102.254895%" id="linearGradient-2">
            <stop stop-color="#769FF8" offset="0%"></stop>
            <stop stop-color="#DEE9FF" offset="100%"></stop>
        </linearGradient>
        <linearGradient x1="-10.2116839%" y1="5.47023614%" x2="114.754649%" y2="62.8735555%" id="linearGradient-3">
            <stop stop-color="#76A0F9" offset="0%"></stop>
            <stop stop-color="#AEC7FC" offset="100%"></stop>
        </linearGradient>
        <radialGradient cx="-42.9152991%" cy="18.9262803%" fx="-42.9152991%" fy="18.9262803%" r="146.279786%" gradientTransform="translate(-0.429153,0.189263),scale(1.000000,0.825308),rotate(-14.018576),translate(0.429153,-0.189263)" id="radialGradient-4">
            <stop stop-color="#FFFFFF" offset="0%"></stop>
            <stop stop-color="#8EB3FF" offset="100%"></stop>
        </radialGradient>
    </defs>
    <g id="陌生人记录图标" stroke="none" stroke-width="1" fill="none" fill-rule="evenodd">
        <g id="分组">
            <rect id="矩形" fill="#FFFFFF" x="0" y="0" width="56" height="56"></rect>
            <path d="M49.323798,45.8148398 C62.7699672,33.5910496 43.4188864,29.5197745 27.323798,33.4398398 C18.4022073,35.6127523 20.0175599,39.9408922 14.7965075,45.0252505 C9.98814482,49.7077238 10.0724429,52.2298773 13.230048,54.0648398 C15.9139283,55.624509 20.4049901,56.5324312 26.292548,55.7835898 C34.5683066,54.7309919 41.761298,52.6898398 49.323798,45.8148398 Z" id="路径-3" fill="url(#linearGradient-1)"></path>
            <path d="M22,55.9995151 L22,55.9932742 C10.6811699,55.8390664 4.35386898,53.0331088 3.01809716,47.5754013 C3.00609292,47.385145 3,47.193284 3,47 C3,46.5394446 3.03535181,46.0795685 3.1057439,45.6244243 L3.74362273,39.6445312 C5.03404049,31.3008927 12.215731,27 20.6585671,27 L24.0704368,27 C32.5132729,27 39.6949634,31.3008927 40.9853812,39.6445312 L41.62326,45.6244243 C41.6936521,46.0795685 41.7290039,46.5394446 41.7290039,47 C41.7290039,47.193284 41.722911,47.385145 41.7109067,47.5754013 C40.3751349,53.0331088 34.047834,55.8390664 22.7290039,55.9932742 L22.7290039,55.9995151 C22.606944,55.9990768 22.4854433,55.9983414 22.364502,55.9973088 C22.2435606,55.9983414 22.1220599,55.9990768 22,55.9995151 Z" id="路径" fill="#E7EEFC"></path>
            <path d="M22,55.9995151 L22,55.9932742 C10.6811699,55.8390664 4.35386898,53.0331088 3.01809716,47.5754013 C3.00609292,47.385145 3,47.193284 3,47 C3,46.5394446 3.03535181,46.0795685 3.1057439,45.6244243 L3.74362273,39.6445312 C4.63887284,33.8559847 8.3696724,30.0132665 13.3899304,28.2025771 C14.5418409,32.0914812 18.1160507,34.9396592 22.364502,34.9990534 C26.6129533,34.9396592 30.187163,32.0914812 31.3390735,28.2025771 C36.3593315,30.0132665 40.0901311,33.8559847 40.9853812,39.6445312 L41.62326,45.6244243 C41.6936521,46.0795685 41.7290039,46.5394446 41.7290039,47 C41.7290039,47.193284 41.722911,47.385145 41.7109067,47.5754013 C40.3751349,53.0331088 34.047834,55.8390664 22.7290039,55.9932742 L22.7290039,55.9995151 C22.606944,55.9990768 22.4854433,55.9983414 22.364502,55.9973088 C22.2435606,55.9983414 22.1220599,55.9990768 22,55.9995151 Z" id="路径" fill="url(#linearGradient-2)"></path>
            <path d="M37.9687683,52.6864768 C37.5376107,52.9721342 37.0716865,53.2393219 36.5709955,53.4880397 C36.7758253,50.3137827 36.1799244,45.0864903 34,40 C36.1077159,42.7760438 37.5637279,46.9129526 37.9687683,52.6864768 Z" id="路径" fill="url(#linearGradient-2)"></path>
            <path d="M4.39761851,36.9783876 C9.20680478,46.3074083 16.7712082,52.5750765 27.0908289,55.7813923 C25.7301543,55.9015677 24.2762126,55.9721951 22.7290039,55.9932742 L22.7290039,55.9995151 C22.606944,55.9990768 22.4854433,55.9983414 22.364502,55.9973088 C22.2435606,55.9983414 22.1220599,55.9990768 22,55.9995151 L22,55.9932742 C10.6811699,55.8390664 4.35386898,53.0331088 3.01809716,47.5754013 C3.00609292,47.385145 3,47.193284 3,47 C3,46.5394446 3.03535181,46.0795685 3.1057439,45.6244243 L3.74362273,39.6445312 C3.88902811,38.704363 4.10923481,37.8155253 4.39761851,36.9783876 Z" id="路径" fill="url(#linearGradient-3)"></path>
            <path d="M22.9580078,5 C28.7569977,5 33.4580078,9.85398966 33.4580078,17.0336914 C33.4580078,24.2133932 28.7569977,31 22.9580078,31 C22.8814792,31 22.8051418,30.9989863 22.7290039,30.9969693 C22.652866,30.9989863 22.5765286,31 22.5,31 C16.7010101,31 12,24.2133932 12,17.0336914 C12,9.85398966 16.7010101,5 22.5,5 C22.5765286,5 22.652866,5.00101365 22.7290039,5.0030307 C22.8051418,5.00101365 22.8814792,5 22.9580078,5 Z" id="路径" fill="url(#radialGradient-4)"></path>
            <path d="M22.914953,26 C21.9656113,26 21.1951165,25.2130707 21.1951165,24.2421198 C21.1951165,23.2725286 21.9656113,22.4868133 22.914953,22.4868133 C23.8644137,22.4868133 24.6349085,23.2725286 24.6349085,24.2421198 C24.6349085,25.2118323 23.8644137,26 22.914953,26 Z M25.538011,18.4142536 C24.6592286,19.2421683 24.5801109,20.0850398 24.5703638,20.1571285 C24.4595799,21.0696363 23.8412822,21.5246034 23.0038417,21.5482283 C22.2114278,21.5706148 21.5554256,20.9527988 21.4410044,20.1770385 C21.3886317,19.4796554 21.3910566,18.2103221 22.6131502,17.2083894 C23.0355078,16.8615432 23.596583,16.2312956 23.596583,15.8185279 C23.5991029,14.9334327 23.0403338,14.3453845 22.3745845,14.3205213 C21.5919177,14.2906564 21.1098652,14.9582716 20.978446,15.5375789 L20.978446,15.5537011 C20.978446,15.5537011 20.77516,17.0430638 19.4874044,17.0716176 C18.6669618,17.0903136 18.0012124,16.3915708 18,15.5537011 C18,12.7305404 20.4574765,11 22.5498179,11 C24.525337,11 26.9803887,12.6335158 27.0351863,15.2131192 C27.0608139,16.42146 26.8332078,17.1947195 25.538011,18.4142536 Z" id="Fill-1" fill="#FFFFFF"></path>
        </g>
    </g>
</svg>