<?xml version="1.0" encoding="UTF-8"?>
<svg width="56px" height="56px" viewBox="0 0 56 56" version="1.1" xmlns="http://www.w3.org/2000/svg" xmlns:xlink="http://www.w3.org/1999/xlink">
    <!-- Generator: Sketch 52.5 (67469) - http://www.bohemiancoding.com/sketch -->
    <title>访客记录图标@2x</title>
    <desc>Created with Sketch.</desc>
    <defs>
        <linearGradient x1="18.4070161%" y1="12.5297153%" x2="83.4193645%" y2="102.254895%" id="linearGradient-1">
            <stop stop-color="#DDE8FF" offset="0%"></stop>
            <stop stop-color="#8EB3FF" offset="100%"></stop>
        </linearGradient>
        <linearGradient x1="-89.9002173%" y1="56.6179905%" x2="126.038491%" y2="50%" id="linearGradient-2">
            <stop stop-color="#74A1FF" offset="0%"></stop>
            <stop stop-color="#8EB3FF" offset="100%"></stop>
        </linearGradient>
        <radialGradient cx="50%" cy="0%" fx="50%" fy="0%" r="146.009707%" gradientTransform="translate(0.500000,0.000000),scale(1.000000,0.852544),rotate(-13.587596),translate(-0.500000,-0.000000)" id="radialGradient-3">
            <stop stop-color="#FFFFFF" offset="0%"></stop>
            <stop stop-color="#8EB3FF" offset="100%"></stop>
        </radialGradient>
        <linearGradient x1="18.4070161%" y1="12.5297153%" x2="83.4193645%" y2="102.254895%" id="linearGradient-4">
            <stop stop-color="#769FF8" offset="0%"></stop>
            <stop stop-color="#DEE9FF" offset="100%"></stop>
        </linearGradient>
        <linearGradient x1="-10.2116839%" y1="5.47023614%" x2="114.754649%" y2="62.8735555%" id="linearGradient-5">
            <stop stop-color="#76A0F9" offset="0%"></stop>
            <stop stop-color="#AEC7FC" offset="100%"></stop>
        </linearGradient>
        <radialGradient cx="-42.9152991%" cy="18.9262803%" fx="-42.9152991%" fy="18.9262803%" r="146.279786%" gradientTransform="translate(-0.429153,0.189263),scale(1.000000,0.825308),rotate(-14.018576),translate(0.429153,-0.189263)" id="radialGradient-6">
            <stop stop-color="#FFFFFF" offset="0%"></stop>
            <stop stop-color="#8EB3FF" offset="100%"></stop>
        </radialGradient>
    </defs>
    <g id="访客记录图标" stroke="none" stroke-width="1" fill="none" fill-rule="evenodd">
        <rect id="矩形" fill="#FFFFFF" x="0" y="0" width="56" height="56"></rect>
        <g id="分组">
            <g id="分组-7-copy" opacity="0.353957403">
                <rect id="矩形" fill="#FFFFFF" x="0" y="0" width="56" height="56"></rect>
                <path d="M11.2386371,44.2927158 C4.59877456,44.2927158 0.855022292,43.0240922 0.00738026972,40.486845 C-0.0623068719,36.6411957 0.361514139,33.8925112 1.2788433,32.2407915 C2.65483705,29.7632119 5.15810987,28.3189694 6.81253584,28.2336536 C6.90018849,28.2291335 7.03345569,28.2257434 7.21233746,28.2234834 L15.2649367,28.2234834 C15.4438184,28.2257434 15.5770857,28.2291335 15.6647383,28.2336536 C17.3191643,28.3189694 19.1718468,28.5917754 21.1984308,32.2407915 C22.5494869,34.6734689 22.9733079,37.4221534 22.4698939,40.486845 C21.6222518,43.0240922 17.8784996,44.2927158 11.2386371,44.2927158 Z" id="路径" fill="url(#linearGradient-1)" opacity="0.447358631"></path>
                <path d="M11.2386371,44.2927158 C4.59877456,44.2927158 0.855022292,43.0240922 0.00738026972,40.486845 C-0.0623068719,36.6411957 0.361514139,33.8925112 1.2788433,32.2407915 C2.65483705,29.7632119 5.15810987,28.3189694 6.81253584,28.2336536 C6.90018849,28.2291335 7.03345569,28.2257434 7.21233746,28.2234834 C7.89026974,30.4421814 10.2424782,31.6924461 12.466142,31.0160278 C13.8068747,30.6081891 14.8561852,29.5612219 15.2649367,28.2234834 C15.4438184,28.2257434 15.5770857,28.2291335 15.6647383,28.2336536 C17.3191643,28.3189694 19.1718468,28.5917754 21.1984308,32.2407915 C22.5494869,34.6734689 22.9733079,37.4221534 22.4698939,40.486845 C21.6222518,43.0240922 17.8784996,44.2927158 11.2386371,44.2927158 Z" id="路径" fill="url(#linearGradient-1)"></path>
                <path d="M11.2386371,44.2927158 C4.59877456,44.2927158 0.855022292,43.0240922 0.00738026972,40.486845 C-0.0623068719,36.6411957 0.361514139,33.8925112 1.2788433,32.2407915 C2.65483705,29.7632119 5.15810987,28.3189694 6.81253584,28.2336536 C6.90018849,28.2291335 7.03345569,28.2257434 7.21233746,28.2234834 C7.89026974,30.4421814 10.2424782,31.6924461 12.466142,31.0160278 C13.8068747,30.6081891 14.8561852,29.5612219 15.2649367,28.2234834 C15.4438184,28.2257434 15.5770857,28.2291335 15.6647383,28.2336536 C17.3191643,28.3189694 19.1718468,28.5917754 21.1984308,32.2407915 C22.5494869,34.6734689 22.9733079,37.4221534 22.4698939,40.486845 C21.6222518,43.0240922 17.8784996,44.2927158 11.2386371,44.2927158 Z" id="合并形状" fill="url(#linearGradient-1)"></path>
                <path d="M20.3323741,42.7860109 C20.0843444,42.9182005 19.8164578,43.0416919 19.5287144,43.1564851 C19.8845269,39.9864154 19.4497233,37.1231208 18.2243035,34.5666014 C19.2116276,35.8571974 19.8473591,37.3372583 20.131498,39.0067841 C20.3075993,40.0415088 20.374558,41.301251 20.3323741,42.7860109 Z" id="路径" fill="url(#linearGradient-2)"></path>
                <path d="M11.2552467,29.492107 C14.9871155,29.492107 18.012393,24.6220787 18.012393,20.943711 C18.012393,17.2653432 16.0122494,13.3355328 11.2552467,13.3355328 C6.49824393,13.3355328 4.23821011,17.2653432 4.23821011,20.943711 C4.23821011,24.6220787 7.52337781,29.492107 11.2552467,29.492107 Z" id="椭圆形" fill="url(#radialGradient-3)"></path>
            </g>
            <g id="分组-7-copy" opacity="0.353957403" transform="translate(32.000000, 13.000000)">
                <path d="M11.2386371,31.2927158 C4.59877456,31.2927158 0.855022292,30.0240922 0.00738026972,27.486845 C-0.0623068719,23.6411957 0.361514139,20.8925112 1.2788433,19.2407915 C2.65483705,16.7632119 5.15810987,15.3189694 6.81253584,15.2336536 C6.90018849,15.2291335 7.03345569,15.2257434 7.21233746,15.2234834 L15.2649367,15.2234834 C15.4438184,15.2257434 15.5770857,15.2291335 15.6647383,15.2336536 C17.3191643,15.3189694 19.1718468,15.5917754 21.1984308,19.2407915 C22.5494869,21.6734689 22.9733079,24.4221534 22.4698939,27.486845 C21.6222518,30.0240922 17.8784996,31.2927158 11.2386371,31.2927158 Z" id="路径" fill="url(#linearGradient-1)" opacity="0.447358631"></path>
                <path d="M11.2386371,31.2927158 C4.59877456,31.2927158 0.855022292,30.0240922 0.00738026972,27.486845 C-0.0623068719,23.6411957 0.361514139,20.8925112 1.2788433,19.2407915 C2.65483705,16.7632119 5.15810987,15.3189694 6.81253584,15.2336536 C6.90018849,15.2291335 7.03345569,15.2257434 7.21233746,15.2234834 C7.89026974,17.4421814 10.2424782,18.6924461 12.466142,18.0160278 C13.8068747,17.6081891 14.8561852,16.5612219 15.2649367,15.2234834 C15.4438184,15.2257434 15.5770857,15.2291335 15.6647383,15.2336536 C17.3191643,15.3189694 19.1718468,15.5917754 21.1984308,19.2407915 C22.5494869,21.6734689 22.9733079,24.4221534 22.4698939,27.486845 C21.6222518,30.0240922 17.8784996,31.2927158 11.2386371,31.2927158 Z" id="路径" fill="url(#linearGradient-1)"></path>
                <path d="M11.2386371,31.2927158 C4.59877456,31.2927158 0.855022292,30.0240922 0.00738026972,27.486845 C-0.0623068719,23.6411957 0.361514139,20.8925112 1.2788433,19.2407915 C2.65483705,16.7632119 5.15810987,15.3189694 6.81253584,15.2336536 C6.90018849,15.2291335 7.03345569,15.2257434 7.21233746,15.2234834 C7.89026974,17.4421814 10.2424782,18.6924461 12.466142,18.0160278 C13.8068747,17.6081891 14.8561852,16.5612219 15.2649367,15.2234834 C15.4438184,15.2257434 15.5770857,15.2291335 15.6647383,15.2336536 C17.3191643,15.3189694 19.1718468,15.5917754 21.1984308,19.2407915 C22.5494869,21.6734689 22.9733079,24.4221534 22.4698939,27.486845 C21.6222518,30.0240922 17.8784996,31.2927158 11.2386371,31.2927158 Z" id="合并形状" fill="url(#linearGradient-1)"></path>
                <path d="M20.3323741,29.7860109 C20.0843444,29.9182005 19.8164578,30.0416919 19.5287144,30.1564851 C19.8845269,26.9864154 19.4497233,24.1231208 18.2243035,21.5666014 C19.2116276,22.8571974 19.8473591,24.3372583 20.131498,26.0067841 C20.3075993,27.0415088 20.374558,28.301251 20.3323741,29.7860109 Z" id="路径" fill="url(#linearGradient-2)"></path>
                <path d="M11.2552467,16.492107 C14.9871155,16.492107 18.012393,11.6220787 18.012393,7.94371098 C18.012393,4.26534324 16.0122494,0.335532775 11.2552467,0.335532775 C6.49824393,0.335532775 4.23821011,4.26534324 4.23821011,7.94371098 C4.23821011,11.6220787 7.52337781,16.492107 11.2552467,16.492107 Z" id="椭圆形" fill="url(#radialGradient-3)"></path>
            </g>
            <g id="分组-17" transform="translate(9.000000, 5.000000)">
                <path d="M19.364502,50.9973088 C19.2435606,50.9983414 19.1220599,50.9990768 19,50.9995151 L19,50.9932742 C7.68116993,50.8390664 1.35386898,48.0331088 0.0180971589,42.5754013 C0.00609291637,42.385145 0,42.193284 0,42 C0,41.5394446 0.0353518061,41.0795685 0.105743898,40.6244243 L0.743622733,34.6445312 C2.03404049,26.3008927 9.21573097,22 17.6585671,22 L21.0704368,22 C29.5132729,22 36.6949634,26.3008927 37.9853812,34.6445312 L38.62326,40.6244243 C38.6936521,41.0795685 38.7290039,41.5394446 38.7290039,42 C38.7290039,42.193284 38.722911,42.385145 38.7109067,42.5754013 C37.3751349,48.0331088 31.047834,50.8390664 19.7290039,50.9932742 L19.7290039,50.9995151 C19.606944,50.9990768 19.4854433,50.9983414 19.364502,50.9973088 Z" id="路径" fill="#E7EEFC"></path>
                <path d="M19.364502,50.9973088 C19.2435606,50.9983414 19.1220599,50.9990768 19,50.9995151 L19,50.9932742 C7.68116993,50.8390664 1.35386898,48.0331088 0.0180971589,42.5754013 C0.00609291637,42.385145 0,42.193284 0,42 C0,41.5394446 0.0353518061,41.0795685 0.105743898,40.6244243 L0.743622733,34.6445312 C1.63887284,28.8559847 5.3696724,25.0132665 10.3899304,23.2025771 C11.5418409,27.0914812 15.1160507,29.9396592 19.364502,29.9990534 C23.6129533,29.9396592 27.187163,27.0914812 28.3390735,23.2025771 C33.3593315,25.0132665 37.0901311,28.8559847 37.9853812,34.6445312 L38.62326,40.6244243 C38.6936521,41.0795685 38.7290039,41.5394446 38.7290039,42 C38.7290039,42.193284 38.722911,42.385145 38.7109067,42.5754013 C37.3751349,48.0331088 31.047834,50.8390664 19.7290039,50.9932742 L19.7290039,50.9995151 C19.606944,50.9990768 19.4854433,50.9983414 19.364502,50.9973088 Z" id="路径" fill="url(#linearGradient-4)"></path>
                <path d="M34.9687683,47.6864768 C34.5376107,47.9721342 34.0716865,48.2393219 33.5709955,48.4880397 C33.7758253,45.3137827 33.1799244,40.0864903 31,35 C33.1077159,37.7760438 34.5637279,41.9129526 34.9687683,47.6864768 Z" id="路径" fill="url(#linearGradient-4)"></path>
                <path d="M1.39761851,31.9783876 C6.20680478,41.3074083 13.7712082,47.5750765 24.0908289,50.7813923 C22.7301543,50.9015677 21.2762126,50.9721951 19.7290039,50.9932742 L19.7290039,50.9995151 C19.606944,50.9990768 19.4854433,50.9983414 19.364502,50.9973088 C19.2435606,50.9983414 19.1220599,50.9990768 19,50.9995151 L19,50.9932742 C7.68116993,50.8390664 1.35386898,48.0331088 0.0180971589,42.5754013 C0.00609291637,42.385145 -5.68434189e-14,42.193284 -5.68434189e-14,42 C-5.68434189e-14,41.5394446 0.0353518061,41.0795685 0.105743898,40.6244243 L0.743622733,34.6445312 C0.889028105,33.704363 1.10923481,32.8155253 1.39761851,31.9783876 Z" id="路径" fill="url(#linearGradient-5)"></path>
                <path d="M19.9580078,0 C25.7569977,0 30.4580078,4.85398966 30.4580078,12.0336914 C30.4580078,19.2133932 25.7569977,26 19.9580078,26 C19.8814792,26 19.8051418,25.9989863 19.7290039,25.9969693 C19.652866,25.9989863 19.5765286,26 19.5,26 C13.7010101,26 9,19.2133932 9,12.0336914 C9,4.85398966 13.7010101,0 19.5,0 C19.5765286,0 19.652866,0.00101365059 19.7290039,0.0030306991 C19.8051418,0.00101365059 19.8814792,0 19.9580078,0 Z" id="路径" fill="url(#radialGradient-6)"></path>
            </g>
        </g>
    </g>
</svg>