<?xml version="1.0" encoding="UTF-8"?>
<svg width="16px" height="16px" viewBox="0 0 16 16" version="1.1" xmlns="http://www.w3.org/2000/svg" xmlns:xlink="http://www.w3.org/1999/xlink">
    <!-- Generator: Sketch 52.5 (67469) - http://www.bohemiancoding.com/sketch -->
    <title>抓拍@2x</title>
    <desc>Created with Sketch.</desc>
    <defs>
        <linearGradient x1="104.014079%" y1="111.215655%" x2="35.6608073%" y2="-15.4638986%" id="linearGradient-1">
            <stop stop-color="#FFFFFF" stop-opacity="0" offset="0%"></stop>
            <stop stop-color="#FFFFFF" offset="100%"></stop>
        </linearGradient>
    </defs>
    <g id="抓拍" stroke="none" stroke-width="1" fill="none" fill-rule="evenodd">
        <g>
            <rect id="Rectangle-path" fill="#000000" fill-rule="nonzero" opacity="0" x="0" y="0" width="16" height="16"></rect>
            <path d="M8,1 C8.01040396,1.00001065 8.02081115,1 8.03122152,1 C10.7286587,1 13.2119291,1.71504176 14.9916943,2.91309787 C15.3058206,3.12455324 16.2375305,3.65303505 15.943333,4.92 C15.8778208,5.20212899 14.9916943,6.04 14.7665429,6.88 C14.7504008,6.94022312 14.6393232,6.74891316 14.4333101,6.3060701 C13.5354049,4.92218168 11.0675408,3.8 8.03122152,3.8 C8.02080764,3.8 8.01040046,3.8000132 8,3.80003957 C7.98959954,3.8000132 7.97919236,3.8 7.96877848,3.8 C4.93245919,3.8 2.46459513,4.92218168 1.56668988,6.3060701 C1.36067675,6.74891316 1.24959916,6.94022312 1.23345711,6.88 C1.00830565,6.04 0.12217923,5.20212899 0.0566670398,4.92 C-0.237530477,3.65303505 0.694179374,3.12455324 1.00830565,2.91309787 C2.78807088,1.71504176 5.27134134,1 7.96877848,1 C7.97918885,1 7.98959604,1.00001065 8,1 Z M7.94534295,15 C4.81099171,15 2.27009799,12.4927946 2.27009799,9.4 C2.27009799,6.3072054 5.65577788,5.48 7.94534295,5.48 C10.234908,5.48 13.6205879,6.3072054 13.6205879,9.4 C13.6205879,12.4927946 11.0796942,15 7.94534295,15 Z M7.94534295,12.2 C9.19908345,12.2 10.2154409,11.1971178 10.2154409,9.96 C10.2154409,8.72288216 9.19908345,7.72 7.94534295,7.72 C6.69160246,7.72 5.67524497,8.72288216 5.67524497,9.96 C5.67524497,11.1971178 6.69160246,12.2 7.94534295,12.2 Z M7.94534295,11.08 C7.31847271,11.08 6.81029396,10.5785589 6.81029396,9.96 C6.81029396,9.34144108 7.31847271,8.84 7.94534295,8.84 C8.5722132,8.84 9.08039195,9.34144108 9.08039195,9.96 C9.08039195,10.5785589 8.5722132,11.08 7.94534295,11.08 Z" id="合并形状" fill="url(#linearGradient-1)"></path>
        </g>
    </g>
</svg>